<?xml version="1.0" encoding="UTF-8" standalone="no"?>
<!-- Created with Inkscape (http://www.inkscape.org/) -->

<svg
   xmlns:dc="http://purl.org/dc/elements/1.1/"
   xmlns:cc="http://creativecommons.org/ns#"
   xmlns:rdf="http://www.w3.org/1999/02/22-rdf-syntax-ns#"
   xmlns:svg="http://www.w3.org/2000/svg"
   xmlns="http://www.w3.org/2000/svg"
   xmlns:sodipodi="http://sodipodi.sourceforge.net/DTD/sodipodi-0.dtd"
   xmlns:inkscape="http://www.inkscape.org/namespaces/inkscape"
   width="210mm"
   height="297mm"
   viewBox="0 0 744.09448819 1052.3622047"
   id="svg2"
   version="1.1"
   inkscape:version="0.91 r13725"
   sodipodi:docname="White Website Logo.svg">
  <defs
     id="defs4" />
  <sodipodi:namedview
     id="base"
     pagecolor="#ffffff"
     bordercolor="#666666"
     borderopacity="1.0"
     inkscape:pageopacity="0.0"
     inkscape:pageshadow="2"
     inkscape:zoom="0.35"
     inkscape:cx="-46.428571"
     inkscape:cy="520"
     inkscape:document-units="px"
     inkscape:current-layer="layer1"
     showgrid="false"
     inkscape:window-width="1366"
     inkscape:window-height="705"
     inkscape:window-x="-8"
     inkscape:window-y="-8"
     inkscape:window-maximized="1" />
  <metadata
     id="metadata7">
    <rdf:RDF>
      <cc:Work
         rdf:about="">
        <dc:format>image/svg+xml</dc:format>
        <dc:type
           rdf:resource="http://purl.org/dc/dcmitype/StillImage" />
        <dc:title></dc:title>
      </cc:Work>
    </rdf:RDF>
  </metadata>
  <g
     inkscape:label="Layer 1"
     inkscape:groupmode="layer"
     id="layer1">
    <path
       style="fill:#ffffff;fill-opacity:1"
       d="m 624.06372,58.997676 c -4.09121,-0.120986 -6.84456,3.150566 -11.0054,9.721445 -4.65292,7.348414 -8.77098,14.354162 -8.79473,15.475176 -0.026,0.826124 2.71863,2.699044 6.08196,4.160837 9.25265,4.021637 23.34445,3.509167 30.8345,-1.119843 3.49184,-2.158084 6.08007,-4.486753 5.74889,-5.174491 -6.34628,-12.91107 -10.10577,-18.134054 -18.22652,-21.808114 -1.76198,-0.797179 -3.27497,-1.214648 -4.6387,-1.25501 z m 26.71715,30.081492 -4.46012,4.189815 c -3.88279,3.647879 -4.46067,5.915957 -4.43595,17.507297 l 0.026,13.31273 20.07527,22.1074 c 11.03997,12.15946 20.76786,22.10739 21.61506,22.10739 2.6083,0 1.74016,-4.4981 -3.29682,-17.08257 -6.29044,-15.71634 -21.22803,-47.99611 -25.87724,-55.924939 l -3.64433,-6.217123 z m -48.979,0.844728 c -0.094,-0.01951 -0.19774,-0.01626 -0.30897,0.0065 -1.94672,0.375157 -6.71564,7.341487 -26.78955,35.101564 -7.8573,10.8659 -19.67029,26.28728 -26.24891,34.27127 -6.57859,7.98401 -11.96116,14.96996 -11.96116,15.52347 0,0.55345 1.70812,1.00399 3.79397,1.00399 3.45625,0 40.64653,-32.21482 58.76806,-50.90495 6.5193,-6.72391 7.05697,-8.11372 7.05697,-18.27963 0,-6.26959 -1.09096,-12.495522 -2.53896,-14.476029 -0.77923,-1.065463 -1.10817,-2.11382 -1.77148,-2.244498 z m 7.12937,36.984044 -17.87416,16.26682 c -46.47509,42.2968 -42.61958,37.81102 -43.94449,51.14144 -0.82075,8.25647 -0.4215,13.35593 1.30328,16.64813 1.36767,2.61 14.15502,16.93883 28.4162,31.84338 l 25.93034,27.09845 12.92656,0 12.92658,0 30.15873,-27.49426 c 16.58826,-15.12295 30.63605,-29.38767 31.21584,-31.69855 0.58002,-2.31091 1.20964,-9.55141 1.39496,-16.08824 0.26051,-9.13599 -0.31613,-12.08514 -2.48582,-12.74793 -1.55231,-0.47422 -10.43829,-9.01088 -19.74705,-18.97472 -9.30901,-9.96381 -20.82936,-22.13949 -25.60212,-27.05503 l -8.67884,-8.93949 -12.97001,0 -12.97,0 z m -100.54522,77.6414 c -0.65814,-0.0293 -3.55067,2.00109 -9.05052,6.55982 -18.03252,14.947 -37.60394,28.33401 -55.505,37.96394 -10.08974,5.42778 -18.34724,10.59447 -18.34724,11.48326 0,0.88887 4.02391,1.93416 8.93952,2.32178 4.91534,0.38761 9.5412,0.85627 10.28136,1.04263 1.78657,0.45032 10.75536,-7.28808 39.58097,-34.16512 16.18838,-15.0942 25.5494,-25.14074 24.10091,-25.20631 z m 5.26139,8.91054 -29.80156,27.37841 c -16.38931,15.05686 -30.29849,28.66992 -30.90694,30.2553 -0.60844,1.58538 -1.09571,8.10731 -1.09571,14.49047 l 0,11.60399 26.55786,28.84099 c 14.60768,15.8609 28.3653,29.60016 30.56901,30.53527 2.20375,0.93514 8.66372,1.20996 14.35533,0.60818 9.27565,-0.98071 11.56731,-2.19792 22.11224,-11.72466 6.47061,-5.84578 17.47569,-15.52335 24.45812,-21.50887 10.02472,-8.59331 15.6108,-11.68068 23.92235,-21.31578 0.88425,-2.02399 1.84518,-5.88392 1.72803,-9.24358 l 2.81893,-18.47272 -22.65769,-24.60775 c -34.58272,-37.55701 -33.63004,-36.83925 -49.07553,-36.83925 l -12.98444,0 z m 186.75928,3.76503 c -2.71137,0 -11.462,7.11379 -33.14181,26.944 -36.57838,33.45773 -34.81194,31.12113 -34.81194,46.00558 l 0,12.79624 26.60615,28.78306 c 14.6336,15.83163 28.39617,29.50851 30.57864,30.39047 7.43002,3.00243 20.17675,2.01424 26.7944,-2.0756 6.17601,-3.81677 6.33352,-4.23798 6.3088,-16.46471 -0.0325,-16.10736 -7.96925,-72.02137 -14.11882,-99.43986 -5.22923,-23.31569 -6.33717,-26.93918 -8.21542,-26.93918 z m -288.81537,48.14393 c -1.83503,0.053 -4.40815,1.01248 -7.9741,2.60655 -5.04736,2.25614 -26.95766,10.87602 -48.68938,19.1533 -56.52161,21.52802 -58.04838,22.12658 -61.00296,24.01888 -2.09896,1.34435 0.51058,5.22035 12.13012,18.01899 8.1415,8.96781 16.51569,17.50593 18.6127,18.97472 2.35374,1.64873 8.51516,2.66952 16.09787,2.65963 l 12.27976,-0.0163 31.04688,-28.75891 31.0421,-28.75893 0.48749,-12.14944 c 0.46264,-11.58773 10e-5,-15.86659 -4.03048,-15.75032 z m 20.90549,34.64298 c -14.38844,0 -13.75066,-0.43998 -52.6378,36.10068 l -23.98991,22.5467 0,12.32318 0,12.32802 14.58218,16.15579 c 8.02018,8.88758 20.82949,22.74371 28.46931,30.79109 l 13.89194,14.63529 12.20737,0 12.20248,0 28.46931,-25.75173 c 15.65803,-14.16182 29.93003,-27.49553 31.71784,-29.63263 2.32041,-2.77323 3.26716,-7.31466 3.29682,-15.86618 0.0468,-13.36187 2.11662,-10.05539 -26.11859,-41.64207 -29.55048,-33.05796 -28.13721,-31.98814 -42.09095,-31.98814 z m 181.76338,5.85992 c -1.39633,0.0163 -2.81727,0.0647 -4.18494,0.14473 l -9.94352,0.57924 c -15.45634,14.93669 -14.2305,13.773 -46.47379,41.86407 l -15.62485,14.58219 -0.99914,11.44951 c -0.62676,7.15773 -0.16327,13.02041 1.2405,15.64417 14.84764,13.16071 28.80915,32.10401 40.97111,44.87608 l 14.90559,15.52347 11.47849,0 c 10.9757,0 11.93752,-0.39424 21.9143,-8.93948 21.83602,-18.70279 51.68656,-46.68201 52.69095,-49.38932 0.57608,-1.55233 1.2446,-8.00593 1.48186,-14.34086 0.1805,-4.80236 1.75525,-7.91132 0.42957,-11.51708 -4.59233,-12.49175 -26.97776,-29.43475 -26.97776,-29.43475 -14.83828,-16.18776 -28.81514,-29.88941 -31.06139,-30.45317 -1.68451,-0.42287 -5.65821,-0.64126 -9.84698,-0.5889 z m -329.60302,8.9926 -11.78739,5.9516 c -14.83801,7.49028 -36.70948,21.9264 -50.40297,33.27214 -15.00853,12.43496 -35.93175,32.968 -35.93175,35.24635 0,1.06261 10.42954,12.83497 23.16931,26.16205 l 23.1645,24.23126 12.23631,-0.77714 12.23628,-0.78196 30.32772,-27.89489 c 16.67971,-15.34218 30.80563,-29.13909 31.38962,-30.66079 0.58398,-1.5217 1.05707,-7.91127 1.05707,-14.20088 0,-11.21124 -0.19026,-11.64075 -9.89522,-21.95296 -5.44447,-5.78521 -13.42273,-14.58813 -17.72937,-19.55877 l -7.83411,-9.03601 z m 437.11356,51.65795 c -0.80248,0.0335 -4.46012,2.84791 -4.46012,2.84791 l -0.73369,26.18136 c 0,0 4.00804,4.18012 5.44961,4.18012 2.03322,0 2.62105,-3.55974 2.62105,-15.88068 0,-11.26067 -1.11103,-17.40231 -2.87685,-17.32871 z m -397.96708,20.04152 -30.78624,28.16518 c -16.93127,15.49261 -31.30485,29.53429 -31.94468,31.20137 -0.63961,1.66704 -1.16333,7.56589 -1.16333,13.10998 0,9.089 0.75988,10.97232 7.74725,19.13402 20.30944,23.72338 49.19866,53.10171 52.96606,53.86386 2.30877,0.46691 5.89466,0.533 7.96447,0.14994 2.06952,-0.38355 5.94838,-0.70443 8.62095,-0.71926 3.60749,-0.0195 12.87832,-7.30304 36.00415,-28.27622 17.13149,-15.53687 32.27776,-32.45637 32.27776,-32.45637 l 1.15367,-13.10514 c 0,0 -0.28361,-9.24218 -25.35592,-37.04197 -13.95894,-15.47719 -27.26803,-29.46156 -29.57953,-31.0807 -2.73309,-1.91436 -8.34811,-2.94443 -16.05441,-2.94443 l -11.8502,0 z m 189.24039,5.59921 c -7.68851,-0.0163 -9.19405,1.95559 -45.21882,34.65264 -12.42026,11.27294 -23.87409,22.66732 -23.87409,22.66732 l -2.08523,14.07537 -0.79643,11.90808 12.43421,13.81955 c 17.09611,16.1006 26.64212,30.87441 48.18254,48.08119 14.65288,4.76457 21.44151,1.45197 49.6065,-24.23608 37.68459,-34.37053 36.00418,-32.18923 36.00418,-46.77795 l 0,-12.35212 -12.54522,-13.96434 c -10.16434,-11.31424 -19.28323,-22.34553 -27.82733,-31.43306 -8.52781,-9.07023 -16.47787,-16.20725 -30.08637,-16.39715 -1.46924,0 -2.69566,-0.041 -3.79394,-0.0436 z m -331.19595,2.0756 -6.29914,6.03851 c -18.87852,18.10218 -62.929,89.61037 -62.22415,101.00861 0.0989,1.58145 5.57804,7.74367 12.17839,13.69404 11.99417,10.81394 12.00747,10.81719 24.13954,10.81719 l 12.13978,0 31.15792,-28.51758 c 33.84746,-30.97731 34.71639,-32.31161 31.80952,-48.92592 -1.33973,-7.65634 -4.14285,-11.62314 -22.2184,-31.43787 l -20.68346,-22.67698 z m 521.89399,4.53733 c -1.18989,0.01 -2.48852,0.1018 -3.90982,0.28978 -2.73856,0.20425 -5.67788,0.0625 -8.7995,0.502 -6.91348,0.97346 -11.42785,4.41667 -37.75638,28.78788 l -29.9029,27.68254 -0.63235,12.56453 c -0.44362,8.79443 0.18278,13.75362 2.09973,16.53228 5.45608,7.91406 49.26904,54.833 53.31842,57.09792 2.28555,1.2783 9.4142,2.33589 15.84204,2.35072 l 11.68602,0.0293 1.77632,-7.057 c 5.68469,-22.58591 12.2928,-64.21705 14.25881,-89.84389 0.63514,-8.2788 1.6018,-19.38958 2.14797,-24.69465 0.90034,-8.74734 0.47386,-10.21678 -4.57594,-15.74551 -4.11995,-4.51082 -7.2232,-8.55952 -15.55242,-8.49541 z m -459.74711,74.73557 c -2.35202,-0.0579 -4.96579,0.15904 -8.12374,0.46339 -7.33287,0.70716 -10.63015,3.1441 -37.26882,27.56185 -16.07273,14.73254 -30.01784,28.28178 -30.9938,30.10562 -0.97619,1.82385 -1.77629,8.68873 -1.77629,15.25799 l 0,11.94669 14.61116,15.92891 c 8.03524,8.76275 19.22631,21.34358 24.87321,27.95765 5.64689,6.61414 12.8333,13.1443 15.96754,14.50979 7.13097,3.10679 20.62245,3.33178 26.04616,0.43444 4.12676,-2.20459 45.82824,-39.80303 57.26688,-51.63384 5.64046,-5.83377 6.11091,-7.28763 6.11091,-18.7237 l 0,-12.39558 -27.34466,-29.76777 C 259.50839,479.1909 254.18702,473.7627 243.99497,473.51152 Z m 181.95168,6.04817 -14.24915,0.59852 c 0,0 -62.915,55.04752 -64.08249,59.40038 -0.60672,2.26229 -1.10479,8.48195 -1.1295,13.82439 -0.026,8.93958 0.73928,10.62832 9.55251,21.1758 17.45052,17.87396 26.18836,31.14269 42.23094,45.12225 5.80827,5.09975 8.03397,5.83579 17.58938,5.83579 13.62506,0 16.60097,-2.06517 50.43191,-35.06293 l 24.81532,-24.20228 0.87367,-11.73913 c 0.72485,-9.69575 0.23482,-12.5553 -2.83343,-16.45507 -13.53929,-13.01466 -27.5782,-31.48253 -39.40234,-43.50523 -12.74573,-12.83155 -23.79682,-14.99249 -23.79682,-14.99249 z m 164.17402,6.76254 -29.41541,26.79436 c -16.177,14.73579 -30.3585,28.73736 -31.51512,31.11446 -1.1566,2.37713 -2.10452,8.99539 -2.10452,14.70772 0,9.80793 0.55221,11.03025 9.88074,21.93847 5.43286,6.35314 13.35105,15.0993 17.5942,19.43808 4.2429,4.33877 11.01464,11.9248 15.05042,16.85569 4.03579,4.93089 9.8799,10.56988 12.98448,12.53559 l 0,0.006 c 4.41611,2.79619 7.99273,3.38184 16.44538,2.69345 12.57621,-1.02422 12.17507,-0.73704 47.864,-34.35821 l 24.796,-23.35759 1.30808,-10.47927 c 0.75825,-6.06897 0.50942,-12.23448 -0.58886,-14.64495 -1.79818,-3.9467 -51.36127,-58.91145 -55.76086,-61.83796 -1.14303,-0.76033 -7.58525,-1.39005 -14.31188,-1.39499 l -12.22665,-0.01 z m -480.63811,23.80166 c -0.0768,0.0163 -0.14375,0.0462 -0.18831,0.0966 -4.75868,5.26013 -16.841219,54.17902 -16.841219,68.18057 0,4.27122 0.90512,7.6073 2.06595,7.6073 1.13685,0 9.603769,-7.43197 18.815409,-16.513 l 16.74948,-16.51296 0,-11.82118 c 0,-11.66146 -0.13335,-11.97021 -9.73111,-22.11706 -5.01743,-5.30523 -9.70375,-9.12678 -10.87026,-8.9202 z m 23.79682,51.42143 -19.00366,17.28045 c -10.45202,9.50324 -20.168749,18.31813 -21.595739,19.59256 -3.714033,3.31666 0.1753,38.22224 6.58395,59.09628 5.461509,17.78798 15.776639,39.51081 21.460609,45.19469 3.02668,3.02681 6.23972,3.70528 17.35284,3.66846 l 13.64093,-0.0436 30.10565,-27.32052 c 17.86571,-16.21212 31.14302,-29.76735 32.65428,-33.34452 1.48726,-3.51769 2.18791,-9.72688 1.68943,-14.91526 -0.78788,-8.19984 -2.30213,-10.46483 -19.48156,-29.12095 -10.24442,-11.125 -22.90354,-24.69694 -28.13624,-30.15871 l -9.51873,-9.92904 -12.87347,0 -12.87829,0 z m 181.43999,5.64754 -30.94072,28.17966 c -17.01603,15.50042 -31.45014,30.10563 -32.07986,32.45638 -0.62997,2.35072 -1.14823,8.36246 -1.17295,13.36096 -0.026,7.79903 0.97791,10.25981 7.03284,17.34322 15.42769,16.69704 30.64226,34.69564 44.90991,47.89776 8.68968,8.00981 8.69224,8.00851 20.01247,6.82531 10.60605,-1.10856 12.16856,-1.93689 24.70916,-13.16306 7.3623,-6.59056 21.64982,-19.92798 31.75166,-29.63745 l 18.36653,-17.65694 -0.026,-11.85982 c -0.026,-10.09341 -0.79506,-12.82355 -5.19862,-18.34236 -15.24628,-13.65397 -28.52805,-31.45739 -40.92284,-44.5865 l -10.34411,-10.81716 -13.04727,0 -13.05206,0 z m 182.0289,5.64267 -30.78627,27.40258 c -32.71286,29.11815 -34.83123,32.04515 -34.83123,48.09566 0,8.80705 0.52375,9.66554 17.40114,28.41139 9.57245,10.63196 22.55553,24.62255 28.85065,31.09033 l 11.4495,11.75844 12.36182,0 c 14.46581,0 13.79056,0.46593 52.70542,-36.10071 l 23.98991,-22.5418 0,-12.62246 0,-12.61765 -27.41706,-30.02841 c -15.07972,-16.51511 -29.26096,-30.57663 -31.51515,-31.24963 -2.25389,-0.67297 -8.17278,-1.30643 -13.1534,-1.4095 l -9.05533,-0.18831 z m 186.45518,5.96611 c -3.23483,0.19449 -6.42579,1.02279 -8.28303,2.23968 -5.88614,3.85691 -58.04572,52.02159 -60.18718,55.57746 -0.95098,1.57913 -1.75633,8.49996 -1.78599,15.37864 l -0.053,12.50661 14.95386,16.24267 c 8.22531,8.93272 15.4111,16.24971 15.97236,16.25713 1.40598,0.0195 13.08582,-20.40643 22.04465,-38.55762 11.21765,-22.72781 26.83821,-63.83964 27.31568,-71.89251 0.41471,-6.99453 0.28425,-7.14674 -6.77704,-7.72793 -1.04046,-0.0855 -2.12199,-0.0885 -3.20026,-0.026 z m -462.42606,74.45561 -20.41797,18.41961 c -49.20943,44.39334 -46.82479,41.00054 -48.13908,49.7658 -0.80196,17.5781 -5.38557,9.64849 13.0424,29.14989 2.07993,2.20111 -3.30867,-3.97168 8.53401,5.92269 -4.3042,4.57844 -6.95781,7.91256 -8.74158,10.60478 L 40.085594,877.57496 c -29.145958,19.32474 -45.7753208,34.97586 -21.880544,42.70399 39.072202,12.63683 51.033105,2.66827 46.512462,-0.59856 -4.075951,-10.31555 -1.819646,-21.24725 -0.246201,-25.4959 0.923759,-2.49422 1.38133,-4.50751 1.699083,-6.32813 L 191.19305,778.08684 c 7.18118,-4.45696 11.04872,-0.52612 12.9941,1.55911 16.20568,7.71283 19.58648,20.31373 32.70736,19.46705 2.07596,-0.78843 17.41822,-13.9549 34.09272,-29.26093 l 30.31319,-27.83218 0,-13.66505 c 0,-13.10095 -0.26279,-13.92557 -6.46326,-19.93526 -16.32208,-13.65381 -28.73769,-32.37052 -42.26957,-46.02976 -6.61566,-6.45984 -8.55005,-7.26866 -19.56358,-8.15271 l -12.22665,-0.97986 z m 178.25421,8.0127 -20.85239,19.28365 c -11.46752,10.60722 -24.58609,22.54461 -29.15474,26.52888 -11.77223,10.26647 -14.51235,16.36947 -12.95068,28.86996 1.44055,11.52948 1.52381,11.64211 34.40647,47.0289 14.86888,16.00115 22.84011,23.17549 26.39371,23.75821 2.80058,0.45527 9.32342,0.40781 14.49531,-0.10635 10.2973,-1.02311 14.61851,-4.37243 53.17844,-41.21727 l 17.43009,-16.65776 0.25108,-12.71902 c 0.19286,-10.00866 -0.51491,-13.60834 -3.32093,-16.88945 -7.25972,-8.48927 -50.56847,-55.10698 -52.43512,-56.44147 -1.06341,-0.7603 -7.67208,-1.39945 -14.68837,-1.41428 l -12.75281,-0.026 z m 192.30544,4.79319 c -4.44158,-0.0426 -7.69563,0.70673 -10.94747,2.41345 -8.54388,4.48432 -59.02994,51.12102 -61.02707,56.37389 -0.91937,2.4183 -1.66047,9.63464 -1.66047,16.0351 l 0,11.63775 20.21525,21.94331 c 11.11904,12.07035 21.34287,22.023 22.72042,22.11221 4.35312,0.28165 41.74507,-39.37698 59.24105,-62.8323 20.78864,-27.86929 21.60562,-29.52164 17.01499,-34.34855 -30.80666,-32.39279 -30.25848,-31.95057 -40.66698,-33.03077 -1.78709,-0.18538 -3.40018,-0.28913 -4.88006,-0.30409 l -0.01,0 z m -286.24746,81.75394 -15.22898,13.41889 c -31.88396,28.09568 -48.76662,45.24941 -48.76662,49.53891 2.3e-4,5.7498 3.5015,8.46946 26.34063,20.45661 28.07851,14.73709 49.83274,22.55137 83.7282,30.08634 7.83087,1.74084 12.23147,1.23989 12.23147,-1.3998 0,-1.47227 4.58952,-6.59892 10.19934,-11.39159 5.60981,-4.79269 11.11464,-11.33564 12.23146,-14.53876 3.49951,-10.04034 2.49396,-20.83238 -2.57757,-27.70664 -3.84253,-5.20825 -34.44986,-38.77884 -49.40378,-54.18731 -3.48,-3.58566 -6.12798,-4.27665 -16.45026,-4.27665 l -12.30389,0 z m 188.42463,6.59358 c -2.71384,-0.002 -4.95001,0.20034 -6.05301,0.60821 -5.48896,2.0304 -61.04813,52.89595 -63.64805,58.27085 -1.14996,2.37713 -2.09007,8.88634 -2.09007,14.46636 0,9.13278 0.75037,11.01662 7.52521,18.8444 4.13933,4.78271 7.52521,9.48809 7.52521,10.45998 0,5.70976 37.70947,-4.74882 62.90954,-17.4494 13.6876,-6.89849 40.54167,-24.3719 49.36999,-32.12331 l 6.35707,-5.57996 -8.98775,-9.66836 c -4.94231,-5.31795 -14.39589,-15.52611 -21.00687,-22.68664 -11.49198,-12.44738 -12.50111,-13.08621 -22.98107,-14.51944 -3.01435,-0.41211 -6.20661,-0.61996 -8.9202,-0.62269 z m -96.01755,86.59539 c -2.79987,0.026 -5.08525,0.2849 -6.30881,0.77233 -6.44641,2.56791 -24.22557,18.97816 -22.89423,21.13234 1.52707,2.47073 60.12649,1.29105 62.58135,-1.25985 1.17686,-1.22268 -0.70719,-4.78181 -5.38205,-10.16552 -6.51166,-7.49903 -8.27488,-8.43316 -18.6127,-9.84695 -3.27064,-0.44729 -6.58373,-0.65736 -9.38356,-0.63235 z"
       id="path4185-7"
       inkscape:connector-curvature="0" />
  </g>
</svg>
