<?xml version="1.0" encoding="UTF-8" standalone="no"?>
<!-- Created with Inkscape (http://www.inkscape.org/) -->

<svg
   xmlns:dc="http://purl.org/dc/elements/1.1/"
   xmlns:cc="http://creativecommons.org/ns#"
   xmlns:rdf="http://www.w3.org/1999/02/22-rdf-syntax-ns#"
   xmlns:svg="http://www.w3.org/2000/svg"
   xmlns="http://www.w3.org/2000/svg"
   xmlns:sodipodi="http://sodipodi.sourceforge.net/DTD/sodipodi-0.dtd"
   xmlns:inkscape="http://www.inkscape.org/namespaces/inkscape"
   width="210mm"
   height="297mm"
   viewBox="0 0 744.09448819 1052.3622047"
   id="svg2"
   version="1.1"
   inkscape:version="0.91 r13725"
   sodipodi:docname="park.svg">
  <defs
     id="defs4" />
  <sodipodi:namedview
     id="base"
     pagecolor="#ffffff"
     bordercolor="#666666"
     borderopacity="1.0"
     inkscape:pageopacity="0.0"
     inkscape:pageshadow="2"
     inkscape:zoom="0.69999999"
     inkscape:cx="381.99977"
     inkscape:cy="47.492666"
     inkscape:document-units="px"
     inkscape:current-layer="layer1"
     showgrid="false"
     inkscape:window-width="1440"
     inkscape:window-height="855"
     inkscape:window-x="25"
     inkscape:window-y="39"
     inkscape:window-maximized="0"
     showguides="false" />
  <metadata
     id="metadata7">
    <rdf:RDF>
      <cc:Work
         rdf:about="">
        <dc:format>image/svg+xml</dc:format>
        <dc:type
           rdf:resource="http://purl.org/dc/dcmitype/StillImage" />
        <dc:title />
      </cc:Work>
    </rdf:RDF>
  </metadata>
  <g
     inkscape:label="Layer 1"
     inkscape:groupmode="layer"
     id="layer1">
    <g
       id="g4410"
       transform="matrix(3.165449,0,0,3.1874608,-337.53878,-2004.6819)">
      <rect
         y="897.4743"
         x="155.67142"
         height="35.463318"
         width="11.265196"
         id="rect3469-1"
         style="fill:#28170b" />
      <path
         sodipodi:nodetypes="cccccccccccccc"
         inkscape:connector-curvature="0"
         id="path3473-57"
         d="m 160.55435,902.93566 -52.6356,0.0799 17.19041,-67.76816 -6.0909,7.90524 15.55362,-49.71464 -5.94024,3.72309 14.40217,-46.63426 -6.25134,5.30066 10.57511,-40.71465 -3.19894,4.12705 10.78196,-40.71392 -4.38423,3.022 10.30503,-37.06087 c -0.53438,89.12247 0.40637,133.98039 -0.30705,258.44851 z"
         style="fill:#00ffbf;fill-opacity:1;fill-rule:evenodd;stroke:none;stroke-width:1px;stroke-linecap:butt;stroke-linejoin:miter;stroke-opacity:1" />
      <path
         sodipodi:nodetypes="cccccccccccccc"
         inkscape:connector-curvature="0"
         id="path3473-5-2"
         d="m 160.67415,903.17787 52.6356,0.0799 -17.19041,-67.76815 6.0909,7.90523 -15.55363,-49.71464 5.94025,3.72309 -14.40217,-46.63425 6.25134,5.30066 -10.57511,-40.71466 3.19894,4.12706 -10.78196,-40.71392 4.38422,3.02199 -10.30502,-37.06086 c 0.53438,89.12247 -0.40638,133.98039 0.30705,258.44851 z"
         style="fill:#18222c;fill-opacity:1;fill-rule:evenodd;stroke:none;stroke-width:1px;stroke-linecap:butt;stroke-linejoin:miter;stroke-opacity:1" />
    </g>
    <g
       id="g4415"
       transform="matrix(2.9184581,0,0,3.1922372,-1187.7393,-1597.1654)">
      <rect
         y="771.83417"
         x="603.16901"
         height="27.76339"
         width="11.265196"
         id="rect3469-5"
         style="fill:#28170b" />
      <path
         sodipodi:nodetypes="cccccccccccccc"
         inkscape:connector-curvature="0"
         id="path3473-0"
         d="m 608.05193,776.10967 -52.6356,0.0626 17.19041,-53.05408 -6.0909,6.18882 15.55362,-38.92041 -5.94024,2.91472 14.40217,-36.50885 -6.25134,4.14976 10.57511,-31.87454 -3.19894,3.23098 10.78196,-31.87397 -4.38423,2.36585 10.30503,-29.01407 c -0.53438,69.77187 0.40637,104.89007 -0.30705,202.3332 z"
         style="fill:#00ffbf;fill-opacity:1;fill-rule:evenodd;stroke:none;stroke-width:1px;stroke-linecap:butt;stroke-linejoin:miter;stroke-opacity:1" />
      <path
         sodipodi:nodetypes="cccccccccccccc"
         inkscape:connector-curvature="0"
         id="path3473-5-0"
         d="m 608.17173,776.29929 52.6356,0.0626 -17.19041,-53.05407 6.0909,6.18882 -15.55363,-38.92042 5.94025,2.91472 -14.40217,-36.50885 6.25134,4.14976 -10.57511,-31.87453 3.19894,3.23097 -10.78196,-31.87396 4.38422,2.36585 -10.30502,-29.01407 c 0.53438,69.77186 -0.40638,104.89006 0.30705,202.3332 z"
         style="fill:#18222c;fill-opacity:1;fill-rule:evenodd;stroke:none;stroke-width:1px;stroke-linecap:butt;stroke-linejoin:miter;stroke-opacity:1" />
    </g>
    <g
       id="g4449"
       transform="translate(-439.79273,8.5017484)">
      <path
         sodipodi:nodetypes="cscc"
         inkscape:connector-curvature="0"
         id="path4321"
         d="m 318.19806,599.81386 c -31.79984,0 -57.5787,-59.69841 -57.5787,-133.34014 0,-73.64172 25.77886,-133.34013 57.5787,-133.34013 -1.75155,123.96119 -1.09777,126.52879 0,266.68027 z"
         style="fill:#00e1bf;fill-opacity:1;stroke:none" />
      <path
         sodipodi:nodetypes="cscc"
         inkscape:connector-curvature="0"
         id="path4321-3"
         d="m 316.25217,333.29882 c 31.79984,0.01 57.56011,59.71634 57.53718,133.35806 -0.0229,73.64172 -25.82038,133.3321 -57.62021,133.3222 1.79014,-123.96064 1.13716,-126.52844 0.083,-266.68026 z"
         style="fill:#18222c;fill-opacity:1;stroke:none" />
      <path
         sodipodi:nodetypes="cccccccc"
         inkscape:connector-curvature="0"
         id="rect3469-50"
         d="m 306.70958,540.68726 9.71899,13.57143 15.43329,-9.28571 -8.57143,20.96065 -0.71428,81.83955 -11.45831,-0.41841 1.30603,-82.84971 z"
         style="fill:#28170b" />
    </g>
    <g
       id="g4454"
       transform="matrix(3.165449,0,0,3.165449,-880.90123,-1853.9619)">
      <path
         sodipodi:nodetypes="ccccc"
         inkscape:connector-curvature="0"
         id="path4425"
         d="m 459.74345,910.32192 -37.37561,0 c 0,-9.5865 7.42293,-20.1005 15.76634,-18.35464 2.54936,-11.97692 17.1151,-12.98936 21.86998,-5.97902 z"
         style="fill:#00ffbf;fill-opacity:1;stroke:none" />
      <path
         sodipodi:nodetypes="ccccc"
         inkscape:connector-curvature="0"
         id="path4425-7"
         d="m 493.58357,910.51352 -34.09268,-0.25254 0.008,-24.08112 c 8.24215,-6.95053 20.05898,-4.90629 23.00287,9.12883 5.182,-1.02216 10.97543,12.20252 11.08164,15.20483 z"
         style="fill:#18222c;fill-opacity:1;stroke:none" />
    </g>
    <rect
       style="fill:#ffffff;fill-opacity:1"
       id="rect4233"
       width="122.78167"
       height="25.848772"
       x="-92.018997"
       y="643.09723" />
    <g
       id="g4335"
       transform="matrix(1.0607967,0,0,1.0607967,-43.972979,-98.010192)">
      <path
         inkscape:connector-curvature="0"
         id="rect3425"
         d="m 400.19674,681.32739 15.50927,0 0,329.57191 -15.50927,0 z"
         style="fill:#18222c;fill-opacity:1" />
      <path
         inkscape:transform-center-y="3.3602313"
         inkscape:transform-center-x="-0.19735309"
         sodipodi:nodetypes="ccccc"
         inkscape:connector-curvature="0"
         id="rect3429"
         d="M 319.60388,627.43113 453.7893,627.24235 491.20634,735.6708 354.625,736.79263 Z"
         style="fill:#00ffbf;fill-opacity:1;stroke:#18222c;stroke-width:1.80941415;stroke-opacity:1" />
      <path
         sodipodi:nodetypes="ccccc"
         inkscape:connector-curvature="0"
         id="rect4237"
         d="m 324.66567,640.45384 132.66988,-0.39418 0.72495,2.43164 -132.55584,0.27983 z"
         inkscape:transform-center-y="0.20358141"
         inkscape:transform-center-x="-3.9796188"
         style="fill:#ffffff;fill-opacity:1" />
      <path
         sodipodi:nodetypes="ccccc"
         inkscape:connector-curvature="0"
         id="rect4237-6"
         d="m 330.20306,657.43106 132.82554,-0.50923 1.02857,2.72806 -133.22018,0.16965 z"
         inkscape:transform-center-y="0.2044867"
         inkscape:transform-center-x="-3.9981825"
         style="fill:#ffffff;fill-opacity:1" />
      <path
         sodipodi:nodetypes="ccccc"
         inkscape:connector-curvature="0"
         id="rect4237-2"
         d="m 335.58541,674.07875 133.36316,-0.11295 0.94245,2.57351 -133.59593,-0.004 z"
         inkscape:transform-center-y="0.20603467"
         inkscape:transform-center-x="-4.0270537"
         style="fill:#ffffff;fill-opacity:1" />
      <path
         sodipodi:nodetypes="ccccc"
         inkscape:connector-curvature="0"
         id="rect4237-7"
         d="m 341.24144,691.85609 133.88096,-0.1109 0.88529,2.5735 -133.93878,0.22465 z"
         inkscape:transform-center-y="0.20581286"
         inkscape:transform-center-x="-4.0269607"
         style="fill:#ffffff;fill-opacity:1" />
      <path
         sodipodi:nodetypes="ccccc"
         inkscape:connector-curvature="0"
         id="rect4237-9"
         d="m 346.70576,709.28933 134.36585,-0.0543 0.83741,2.29353 -134.42443,0.11066 z"
         inkscape:transform-center-y="12.654945"
         inkscape:transform-center-x="-3.7694846"
         style="fill:#ffffff;fill-opacity:1" />
      <path
         sodipodi:nodetypes="ccccc"
         inkscape:connector-curvature="0"
         id="rect4237-70"
         d="m 351.84149,725.43414 134.82335,-0.0538 0.8947,2.35069 -134.76633,0.33943 z"
         inkscape:transform-center-y="0.20650508"
         inkscape:transform-center-x="-4.0366869"
         style="fill:#ffffff;fill-opacity:1" />
      <path
         sodipodi:nodetypes="ccccc"
         inkscape:connector-curvature="0"
         id="rect4237-0"
         d="m 369.33581,735.71561 -36.56066,-107.50074 2.90929,-0.008 36.26576,107.66209 z"
         inkscape:transform-center-y="-3.2902806"
         inkscape:transform-center-x="0.85575529"
         style="fill:#ffffff;fill-opacity:1" />
      <path
         sodipodi:nodetypes="ccccc"
         inkscape:connector-curvature="0"
         id="rect4237-0-3"
         d="m 391.21256,735.69864 -36.32352,-107.44727 2.97462,-0.12332 36.15214,107.50441 z"
         inkscape:transform-center-y="-3.2330457"
         inkscape:transform-center-x="0.84072304"
         style="fill:#ffffff;fill-opacity:1" />
      <path
         sodipodi:nodetypes="ccccc"
         inkscape:connector-curvature="0"
         id="rect4237-0-6"
         d="m 412.31005,735.40775 -36.26548,-107.15306 2.75554,-0.0917 36.15123,107.26729 z"
         inkscape:transform-center-y="-3.2542516"
         inkscape:transform-center-x="0.84623827"
         style="fill:#ffffff;fill-opacity:1" />
      <path
         sodipodi:nodetypes="ccccc"
         inkscape:connector-curvature="0"
         id="rect4237-0-62"
         d="m 433.29873,735.17686 -36.23401,-106.99941 2.9303,-0.10098 35.83421,107.22795 z"
         inkscape:transform-center-y="-3.2619714"
         inkscape:transform-center-x="0.84824417"
         style="fill:#ffffff;fill-opacity:1" />
      <path
         sodipodi:nodetypes="ccccc"
         inkscape:connector-curvature="0"
         id="rect4237-0-39"
         d="m 452.74096,735.04167 -36.34689,-106.76545 2.98972,-0.10727 36.06129,106.87962 z"
         inkscape:transform-center-y="-3.2670901"
         inkscape:transform-center-x="0.84955691"
         style="fill:#ffffff;fill-opacity:1" />
      <path
         sodipodi:nodetypes="ccccc"
         inkscape:connector-curvature="0"
         id="rect4237-0-8"
         d="M 473.80159,734.93479 437.62471,628.221 l 2.87318,-0.10098 36.06261,106.82804 z"
         inkscape:transform-center-y="-3.2619333"
         inkscape:transform-center-x="0.84823888"
         style="fill:#ffffff;fill-opacity:1" />
    </g>
    <g
       id="g4458"
       transform="matrix(2.5882414,0,0,2.5882414,-626.35041,-1368.3108)">
      <rect
         y="898.97632"
         x="290.39569"
         height="31.039886"
         width="10.346629"
         id="rect4393"
         style="fill:#00ffbf;fill-opacity:1;stroke:none" />
      <rect
         y="898.97632"
         x="383.73096"
         height="31.039886"
         width="10.346629"
         id="rect4393-2"
         style="fill:#00ffbf;fill-opacity:1;stroke:none" />
      <rect
         y="880.15845"
         x="273.25919"
         height="6.8977532"
         width="134.5062"
         id="rect4361"
         style="fill:#00ffbf;fill-opacity:1;stroke:none" />
      <rect
         y="888.78058"
         x="273.25919"
         height="6.8977532"
         width="134.5062"
         id="rect4361-0"
         style="fill:#00ffbf;fill-opacity:1;stroke:none" />
      <rect
         y="897.40289"
         x="273.25919"
         height="6.8977532"
         width="134.5062"
         id="rect4361-4"
         style="fill:#00ffbf;fill-opacity:1;stroke:none" />
      <rect
         y="903.65405"
         x="273.25919"
         height="6.8977532"
         width="134.5062"
         id="rect4361-6"
         style="fill:#18222c;fill-opacity:1;stroke:none" />
    </g>
  </g>
</svg>
