<?xml version="1.0" encoding="UTF-8" standalone="no"?>
<!-- Created with Inkscape (http://www.inkscape.org/) -->

<svg
   xmlns:dc="http://purl.org/dc/elements/1.1/"
   xmlns:cc="http://creativecommons.org/ns#"
   xmlns:rdf="http://www.w3.org/1999/02/22-rdf-syntax-ns#"
   xmlns:svg="http://www.w3.org/2000/svg"
   xmlns="http://www.w3.org/2000/svg"
   xmlns:sodipodi="http://sodipodi.sourceforge.net/DTD/sodipodi-0.dtd"
   xmlns:inkscape="http://www.inkscape.org/namespaces/inkscape"
   width="210mm"
   height="297mm"
   viewBox="0 0 744.09448819 1052.3622047"
   id="svg2"
   version="1.1"
   inkscape:version="0.91 r13725"
   sodipodi:docname="Logo_rotated_white.svg">
  <defs
     id="defs4">
    <pattern
       y="0"
       x="0"
       height="6"
       width="6"
       patternUnits="userSpaceOnUse"
       id="EMFhbasepattern" />
  </defs>
  <sodipodi:namedview
     id="base"
     pagecolor="#ffffff"
     bordercolor="#666666"
     borderopacity="1.0"
     inkscape:pageopacity="0.0"
     inkscape:pageshadow="2"
     inkscape:zoom="0.5"
     inkscape:cx="200.59691"
     inkscape:cy="494.25018"
     inkscape:document-units="px"
     inkscape:current-layer="layer1"
     showgrid="false"
     inkscape:window-width="1440"
     inkscape:window-height="799"
     inkscape:window-x="0"
     inkscape:window-y="1"
     inkscape:window-maximized="1" />
  <metadata
     id="metadata7">
    <rdf:RDF>
      <cc:Work
         rdf:about="">
        <dc:format>image/svg+xml</dc:format>
        <dc:type
           rdf:resource="http://purl.org/dc/dcmitype/StillImage" />
        <dc:title></dc:title>
      </cc:Work>
    </rdf:RDF>
  </metadata>
  <g
     inkscape:label="Layer 1"
     inkscape:groupmode="layer"
     id="layer1">
    <path
       inkscape:connector-curvature="0"
       id="path4141"
       d="m 157.74273,749.66479 c 13.07489,11.20659 25.84985,16.55612 38.18657,16.21008 5.55725,-0.27687 17.52443,0.46031 26.49446,1.42868 8.97018,0.96836 23.77428,1.33703 32.7672,0.64487 9.13152,-0.8534 25.4343,-0.5999 36.22609,0.52982 17.61723,1.65976 76.81022,0.87453 148.82416,-1.80176 12.63641,-0.36896 28.01679,-0.3465 33.92,-0.0468 5.76489,0.46106 17.52518,0.46083 25.94183,0.11475 8.41628,-0.34599 29.97678,-0.34645 47.77858,-0.2085 17.80152,0.13812 33.41268,-0.76153 34.81922,-2.07599 8.27821,-8.02479 16.44039,-21.46791 29.42236,-48.70132 13.39697,-27.71757 14.94179,-33.11354 15.24132,-52.7369 0.29929,-21.58364 -3.82853,-34.08177 -23.49857,-72.22116 -3.36675,-6.52575 -2.46745,-8.55501 11.43689,-29.67763 37.17056,-55.78147 50.17521,-96.4354 46.29863,-144.8346 -1.70653,-20.22285 -2.92898,-32.19069 -7.70231,-33.48189 -81.74361,-23.86661 -17.06394,-2.30559 -10.07642,23.8436 5.09811,19.20598 2.21634,50.33622 -3.73254,70.99752 -5.21109,18.49374 -24.85707,55.13534 -40.19125,75.31261 l -11.22957,14.73522 -19.36998,-14.64223 c -10.69972,-7.77073 -26.67983,-17.54741 -35.41945,-21.39814 -33.11333,-14.9416 -83.33657,-22.98813 -90.66926,-14.43298 -33.9197,3.96743 -47.08643,9.20219 -67.19398,24.16812 L 352.0358,554.99507 331.74323,542.08223 C 296.04685,519.04663 247.25281,496.26497 213.21712,486.97255 165.6223,473.89884 113.94615,460.68664 59.413012,461.26583 c -10.953139,0.69204 -13.881642,1.82195 -14.873173,6.57223 -0.66859,3.06688 0.692482,22.71319 2.904428,43.64928 7.034599,65.94947 33.577583,132.65948 79.951523,202.36683 9.91586,15.21901 20.33894,27.23269 30.34694,35.81062 z m -6.91818,-15.44959 0.13857,-0.16168 -12.77534,-17.10978 -5.2807,-7.88616 c -2.19091,-8.87781 -4.03611,-28.93935 -5.60442,-41.48354 l -14.3199,-11.71413 -8.71646,0.36915 -3.7819,-8.00162 12.47509,-0.50749 10.42218,-11.50685 -5.32756,-43.76666 -12.84425,-10.1689 -34.958048,0.2774 -2.536717,-9.45424 38.555025,-0.55403 8.0245,-9.3623 -5.42001,-44.9654 -13.951241,-12.79772 -40.030926,-0.99091 -0.436131,-7.65393 43.141814,0.29736 7.724694,-7.37916 -2.76761,-16.37193 10.93016,0.96827 1.22256,11.96754 11.69133,10.86074 46.44144,0.0454 8.18591,-9.22342 16.18777,2.67454 8.04809,6.61765 7.95546,-0.46133 29.19336,9.06175 -40.37699,0.39276 -7.63255,8.57779 4.75142,46.07237 12.26775,10.51478 53.01333,-0.76178 9.93817,-9.96165 -4.91249,-42.29083 9.2237,4.26602 4.38219,37.35598 11.34564,10.284 42.17542,-0.53106 -8.99279,10.49202 -33.75891,0.18513 -7.70174,7.67849 1.72992,22.48286 -6.91763,8.0709 -2.92914,-26.31067 -12.95978,-11.66749 -53.47452,0.64654 -9.20049,9.75431 4.45147,42.17522 13.16715,10.44566 35.62652,-1.38406 -8.90025,9.7312 -29.03176,0.87692 -7.90942,8.90084 3.43662,30.94539 -6.11057,8.76265 -4.65873,-37.03318 -13.95142,-10.83742 -44.52761,1.31531 -8.85442,10.33058 5.39689,44.66581 12.10648,14.29655 39.15465,-2.56024 -5.46486,9.31608 -33.80482,1.54548 -1.6836,1.63709 z m 43.3057,14.15771 c -0.32258,-0.27648 -0.50736,-0.7153 -0.53066,-1.01439 -0.13839,-1.79863 6.24884,-12.84415 14.27325,-24.16644 14.27322,-20.24624 14.68828,-20.73049 24.60373,-21.1919 5.55734,-0.2768 18.05551,1.47546 27.87807,3.73477 9.9848,2.39796 28.45545,5.34917 41.20701,6.4786 12.75187,1.1297 34.22007,3.85047 47.77878,5.67172 13.58207,2.12118 25.50373,4.21932 26.47224,5.04944 2.58273,2.21367 -0.6455,5.32678 -15.95676,16.00359 -7.44783,5.09604 -16.16418,11.34533 -19.57691,14.02024 -4.26592,3.34374 -15.51889,4.05872 -38.83154,2.83703 -18.03244,-1.17563 -39.3161,-1.49785 -47.08704,-0.59834 -18.10141,1.84482 -55.38781,-2.6735 -60.23036,-6.82409 z m -62.97773,-113.05861 13.6742,11.16069 42.84417,-1.63788 11.41417,-12.33703 -4.38235,-39.3159 -13.55914,-11.62165 -46.25688,0.39272 -8.43956,9.84655 4.7052,43.51272 z m 110.50144,50.75168 c -4.58894,-4.77322 -1.26848,-10.60733 6.36402,-19.18556 14.25012,-16.62582 53.74996,-51.93033 62.48937,-55.91987 4.08143,-1.82173 20.56873,-1.13002 37.63213,1.17497 16.92557,2.46704 41.02232,6.04078 53.8203,7.76998 12.65969,1.89056 38.07102,6.8707 56.35666,11.34453 18.12455,4.33457 33.50519,8.27737 34.31234,8.96919 2.09838,1.79854 -3.13602,6.27224 -22.89705,19.85397 -10.44577,7.287 -26.70219,19.39328 -35.7644,27.02614 -33.48145,27.30274 -26.81739,25.73455 -80.82189,19.4867 -73.16726,-8.39215 -103.81257,-12.81834 -111.49148,-20.52005 z m -118.59693,-124.61053 13.78998,10.69903 45.49593,-0.48496 8.78543,-9.27005 -5.16639,-45.58804 -13.48996,-10.72234 -43.76657,-0.55281 -10.65324,10.4692 5.00502,45.44973 z M 371.1553,752.54267 c -1.12996,-0.96849 1.614,-4.49665 6.43338,-8.48595 12.91305,-10.49236 16.18751,-9.08576 13.39759,5.60313 -0.76085,3.82782 -16.11838,6.06492 -19.83097,2.88282 z m 37.35625,1.49808 c -3.73565,-1.52185 -0.34664,-26.05685 4.35738,-31.5451 5.2574,-6.13387 20.77588,-18.03264 59.60715,-46.35012 17.13286,-12.47553 31.91301,-22.2064 32.72007,-21.51465 0.80714,0.6918 0.66897,8.69339 -0.29938,17.66356 -5.90165,52.62054 -8.82976,75.31101 -10.48999,77.24803 -1.79862,2.09847 -81.37565,6.41212 -85.89523,4.49828 z m 106.02602,-5.4441 c -2.09838,-1.79854 5.25534,-84.53475 8.99064,-100.65334 2.05218,-8.60117 3.85079,-10.69964 19.78452,-23.08289 9.66177,-7.67893 23.10516,-17.15665 29.72314,-21.28435 12.54408,-7.44845 13.92765,-7.10258 20.93774,3.66581 12.01427,18.97763 17.17985,41.0452 14.66679,63.25141 -2.02875,18.70119 -18.30818,54.0284 -32.00453,70.00813 -6.9177,8.07098 -9.9845,9.36239 -24.25814,10.00847 -21.92923,1.08398 -35.25743,0.30043 -37.84016,-1.91324 z m -176.08281,-154.562 c -2.42127,-2.07529 14.80354,-19.2316 27.85507,-27.92525 7.74726,-5.11866 24.28066,-13.6279 36.80114,-19.4167 18.51655,-8.20945 28.89325,-10.51562 53.22057,-11.78455 35.44228,-1.82241 54.65059,2.8811 84.39731,21.09724 37.33341,22.75869 37.51792,23.19675 11.29978,43.00531 -34.79587,25.89661 -35.09562,25.9196 -54.55776,23.7986 -9.73111,-1.0606 -30.53054,-4.88776 -46.02649,-8.36944 -15.49573,-3.48149 -38.8775,-7.56314 -51.81386,-9.13088 -23.45118,-3.02016 -59.0773,-9.47572 -61.17576,-11.27433 z"
       style="fill:#ffffff;fill-opacity:1;fill-rule:nonzero;stroke:none" />
  </g>
</svg>
