<?xml version="1.0" encoding="UTF-8"?>
<!-- Generator: Adobe Illustrator 15.0.2, SVG Export Plug-In . SVG Version: 6.00 Build 0)  -->
<!DOCTYPE svg PUBLIC "-//W3C//DTD SVG 1.1//EN" "http://www.w3.org/Graphics/SVG/1.1/DTD/svg11.dtd">
<svg xmlns="http://www.w3.org/2000/svg" xmlns:xlink="http://www.w3.org/1999/xlink" version="1.1" id="Layer_1" x="0px" y="0px" width="512px" height="800.039px" viewBox="0 0 512 800.039" enable-background="new 0 0 512 800.039" xml:space="preserve">
<path d="M240.008,640.037c44.183,0,79.986,35.804,79.986,79.977c0,44.191-35.804,80.025-79.986,80.025  c-44.192,0-80.006-35.834-80.006-80.025C160.002,675.841,195.815,640.037,240.008,640.037z M256.005,0  C397.404,0,512,91.453,512,224.011c0,48.001-31.975,128.007-96.003,160.002c-63.989,32.004-96.003,74.992-96.003,128.007v63.989  H160.002v-48.002c0-108.812,96.003-175.989,128.018-207.993c63.988-63.999,63.988-72.881,63.988-96.003  c0-53.015-42.988-96.003-96.003-96.003c-53.024,0-96.003,42.988-96.003,96.003v48.001H0v-32.004C0,107.461,114.615,0,256.005,0z" fill="#F8F8FF"/>
</svg>
